/* XPM */
static const char * const fte16x16_xpm[] = {
"16 16 9 1",
".     c None",
"+     c #800000",
"@     c #FF0000",
"#     c #C00000",
"$     c #400000",
"%     c #200000",
"&     c #600000",
"*     c #A00000",
"=     c #DF0000",
".++++...........",
".@###$..........",
".@$.............",
".@@@%...........",
".@&$%...........",
".@$..@@@@@%.....",
".@$..%$@&$%.....",
".%%....@$.......",
".......@$.......",
".......@$.+@@@*.",
".......@$.+#$$$.",
".......%%.+=+$..",
"..........+=#*..",
"..........+#....",
"..........+@@@*.",
"...........$$$$."};
