/* XPM */
static const char * const fte48x48_xpm[] = {
"48 48 45 1",
".     c None",
"+     c #150000",
"@     c #2A0000",
"#     c #6A0000",
"$     c #D40000",
"%     c #800000",
"&     c #FF0000",
"*     c #A00000",
"=     c #350000",
"-     c #0B0000",
";     c #F40000",
">     c #EA0000",
",     c #B50000",
"'     c #6B0000",
")     c #CA0000",
"!     c #950000",
"~     c #8B0000",
"{     c #C00000",
"]     c #750000",
"^     c #4B0000",
"/     c #400000",
"(     c #DF0000",
"_     c #8A0000",
":     c #7F0000",
"<     c #120000",
"[     c #040000",
"}     c #590000",
"|     c #7C0000",
"1     c #6E0000",
"2     c #270000",
"3     c #D80000",
"4     c #3C0000",
"5     c #E60000",
"6     c #830000",
"7     c #ED0000",
"8     c #A70000",
"9     c #600000",
"0     c #230000",
"a     c #070000",
"b     c #FB0000",
"c     c #B10000",
"d     c #200000",
"e     c #920000",
"f     c #840000",
"g     c #9F0000",
"................................................",
"...+@@@@@@@@@@@+................................",
"...#$$$$$$$$$$$#................................",
"...%&&&&&&&&&&&*=-..............................",
"...%&&;>>>>>>>>,'+..............................",
"...%&&)!!!!!!!!~'+..............................",
"...%&&{]^///////=-..............................",
"...%&&{'+.......................................",
"...%&&{'+.......................................",
"...%&&(,_:::/...................................",
"...%&&&&&&&&_<[.................................",
"...%&&&&&&&&,}<.................................",
"...%&&({{{{{*'+.................................",
"...%&&{|1''''}<.................................",
"...%&&{12++++<[.................................",
"...%&&{'+....../::::::::::::::/.................",
"...%&&{'+......%&&&&&&&&&&&&&&_<[...............",
"...%&&{'+......%&&&&&&&&&&&&&&,}<...............",
"...%&&{'+....../_,{{{(&&({{{{{*'+...............",
"...%&&{'+.......<}''',&&{|1''''}<...............",
"...%&&{'+.......[<+++_&&{12++++<[...............",
".../_,*'+............%&&{'+.....................",
"....<}'}<............%&&{'+.....................",
"....[<+<[............%&&{'+.....................",
".....................%&&{'+.....................",
".....................%&&{'+.....................",
".....................%&&{'+.....................",
".....................%&&{'+....+#::::::::::#+...",
".....................%&&{'+....@$&&&&&&&&&&34-..",
".....................%&&{'+....@$&&&&&&&&&&56=..",
".....................%&&{'+....@$&;){{{{{{{,~/..",
".....................%&&{'+....@$&>!]''''''''=..",
".....................%&&{'+....@$&>!^++++++++-..",
"...................../_,*'+....@$&>!/...........",
"......................<}'}<....@$&789@@@0a......",
"......................[<+<[....@$&b7($$$c0......",
"...............................@$&&&&&&&(9d.....",
"...............................@$&b7>>>>3e/.....",
"...............................@$&78!!!!ef/.....",
"...............................@$&>!9/////d.....",
"...............................@$&>!/...........",
"...............................@$&>!/...........",
"...............................@$&;)g::::::#+...",
"...............................@$&&&&&&&&&&34-..",
"...............................@$&&&&&&&&&&56=..",
"...............................+#*{{{{{{{{{,~/..",
".................................='''''''''''=..",
".................................-+++++++++++-.."};
