/* XPM */
static const char * const fte64x64_xpm[] = {
"64 64 9 1",
".     c None",
"+     c #400000",
"@     c #800000",
"#     c #FF0000",
"$     c #A00000",
"%     c #200000",
"&     c #C00000",
"*     c #DF0000",
"=     c #600000",
"................................................................",
"................................................................",
"....+@@@@@@@@@@@@@@@+...........................................",
"....@###############@...........................................",
"....@###############$+%.........................................",
"....@###############&@+.........................................",
"....@###*&&&&&&&&&&&$@+.........................................",
"....@###&@@@@@@@@@@@@@+.........................................",
"....@###&@=+++++++++++%.........................................",
"....@###&@+.....................................................",
"....@###&@+.....................................................",
"....@###&@+.....................................................",
"....@###*&$@@@@@+...............................................",
"....@###########@...............................................",
"....@###########$+%.............................................",
"....@###########&@+.............................................",
"....@###*&&&&&&&$@+.............................................",
"....@###&@@@@@@@@@+.............................................",
"....@###&@=+++++++%.............................................",
"....@###&@+.....................................................",
"....@###&@+.........+@@@@@@@@@@@@@@@@@@@+.......................",
"....@###&@+.........@###################@.......................",
"....@###&@+.........@###################$+%.....................",
"....@###&@+.........@###################&@+.....................",
"....@###&@+.........+@$&&&&&*###*&&&&&&&$@+.....................",
"....@###&@+...........+@@@@@&###&@@@@@@@@@+.....................",
"....@###&@+...........%+++++$###&@=+++++++%.....................",
"....@###&@+.................@###&@+.............................",
"....+@$&$@+.................@###&@+.............................",
"......+@@@+.................@###&@+.............................",
"......%+++%.................@###&@+.............................",
"............................@###&@+.............................",
"............................@###&@+.............................",
"............................@###&@+.............................",
"............................@###&@+.............................",
"............................@###&@+.............................",
"............................@###&@+.......+@@@@@@@@@@@@@@@+.....",
"............................@###&@+.......@###############@.....",
"............................@###&@+.......@###############$+%...",
"............................@###&@+.......@###############&@+...",
"............................@###&@+.......@###*&&&&&&&&&&&$@+...",
"............................@###&@+.......@###&@@@@@@@@@@@@@+...",
"............................@###&@+.......@###&@=+++++++++++%...",
"............................@###&@+.......@###&@+...............",
"............................+@$&$@+.......@###&@+...............",
"..............................+@@@+.......@###&@+...............",
"..............................%+++%.......@###*&$@@@@@+.........",
"..........................................@###########@.........",
"..........................................@###########$+%.......",
"..........................................@###########&@+.......",
"..........................................@###*&&&&&&&$@+.......",
"..........................................@###&@@@@@@@@@+.......",
"..........................................@###&@=+++++++%.......",
"..........................................@###&@+...............",
"..........................................@###&@+...............",
"..........................................@###&@+...............",
"..........................................@###*&$@@@@@@@@@+.....",
"..........................................@###############@.....",
"..........................................@###############$+%...",
"..........................................@###############&@+...",
"..........................................+@$&&&&&&&&&&&&&$@+...",
"............................................+@@@@@@@@@@@@@@@+...",
"............................................%+++++++++++++++%...",
"................................................................"};
